<?xml version="1.0" encoding="UTF-8" standalone="no"?>
<!DOCTYPE svg PUBLIC "-//W3C//DTD SVG 1.1//EN" "http://www.w3.org/Graphics/SVG/1.1/DTD/svg11.dtd">
<svg width="100%" height="100%" viewBox="0 0 340 124" version="1.1" xmlns="http://www.w3.org/2000/svg" xmlns:xlink="http://www.w3.org/1999/xlink" xml:space="preserve" xmlns:serif="http://www.serif.com/" style="fill-rule:evenodd;clip-rule:evenodd;stroke-linejoin:round;stroke-miterlimit:2;">
    <g id="Artboard1" transform="matrix(1,0,0,0.805556,-4.274265,-74.314831)">
        <rect x="4.274" y="92.253" width="339.448" height="153.874" style="fill:none;"/>
        <g transform="matrix(0.415877,0,0,0.516262,11.717546,87.019371)">
            <g transform="matrix(84.533528,0,0,84.533528,336.881658,149.243099)">
            </g>
            <text x="15.316px" y="149.243px" style="font-family:'Gordita-Medium', 'Gordita';font-weight:500;font-size:84.534px;stroke:black;stroke-width:4.26px;">C<tspan x="85.141px " y="149.243px ">A</tspan>DRE</text>
        </g>
        <g transform="matrix(1.121665,0,0,1.392412,-5.092346,-45.014602)">
            <g transform="matrix(22.873778,0,0,22.873778,306.95471,170.614426)">
            </g>
            <text x="19.431px" y="170.614px" style="font-family:'Gordita-Medium', 'Gordita';font-weight:500;font-size:22.874px;">Labr<tspan x="70.463px 83.501px 92.81px " y="170.614px 170.614px 170.614px ">ato</tspan>ry<tspan x="130.186px 136.225px 145.237px 160.105px 168.454px " y="170.614px 170.614px 170.614px 170.614px 170.614px "> for </tspan>Ne<tspan x="207.751px " y="170.614px ">w</tspan> Media</text>
        </g>
        <g transform="matrix(1,0,0,1.241379,0.274265,-23.722664)">
            <rect x="19.336" y="190.205" width="69.678" height="9.795" style="fill:rgb(86,58,255);"/>
        </g>
    </g>
</svg>
