<?xml version="1.0" encoding="UTF-8"?>
<svg xmlns="http://www.w3.org/2000/svg" data-name="Layer 2" viewBox="0 0 1323.04 637.29">
  <defs>
    <style>
      .cls-1 { fill: #845ea8; }
      .cls-2 { fill: #f0efef; }
    </style>
  </defs>
  <g data-name="Layer 1">
    <g>
      <path class="cls-1" d="M1257.83,162.16l8.13,47.12,48.97-5.36c7.33-.8,11.09,8.53,5.25,13.04l-46.68,35.99,9.16,53.08c1.11,6.44-6.14,10.98-11.45,7.17l-39.28-28.21-44.22,34.09c-6.01,4.64-14.23-1.85-11.11-8.77l22.1-49.17-38.29-27.49c-5.44-3.9-3.19-12.46,3.46-13.18l55.86-6.11,24.24-53.93c2.95-6.57,12.63-5.35,13.85,1.75Z" />
      <path class="cls-1" d="M367.97,17.62l38.63,188.39,197.07-27.83c22.05-3.12,34.29,24.71,17.08,38.86l-181.33,149.07,42.29,206.28c3.96,19.33-17.51,33.73-33.89,22.73l-157.94-106.08-174.07,143.1c-17.71,14.56-43.12-4.24-34.38-25.43l83.21-201.79L9.77,300.89c-16.78-11.27-10.81-37.3,9.21-40.13l217.8-30.76L326,13.65c8.29-20.11,37.61-17.33,41.98,3.98Z" />
      <path class="cls-1" d="M1006.4,459.36c-6.4,0-12.31-2.91-16.2-7.99-.82-1.07-1.52-2.19-2.11-3.37-5.27,7.14-13.56,11.36-22.52,11.36h-35.02c-11,0-21.02-6.48-25.53-16.51l-19.23-42.74c-.37-.83-1.2-1.36-2.1-1.36h-3.27c-1.04,0-1.96.7-2.23,1.71l-10.2,38.14c-3.27,12.23-14.39,20.76-27.05,20.76h-29.23c-8.77,0-16.87-3.99-22.21-10.95-5.34-6.96-7.1-15.81-4.83-24.29l4.32-16.15c-5.83,8.19-12.25,15.41-19.26,21.63-22.23,19.75-50.44,29.76-83.84,29.76h-86.05c-8.84,0-17-4.02-22.38-11.03-.7-.92-1.34-1.86-1.92-2.84-.93,2.59-2.36,5.01-4.26,7.08-3.95,4.32-9.57,6.8-15.42,6.8h-44.21c-9.48,0-17.59-6.37-20.1-15.15h-62.05l-3,5c-3.76,6.26-10.62,10.15-17.93,10.15h-41.51c-7.6,0-14.6-4.13-18.28-10.77-.09-.16-.17-.31-.25-.47-4.88,6.89-12.91,11.24-21.71,11.24h-57.63c-33.48,0-59.41-12.22-77.04-36.32-17.5-23.91-21.85-52.82-12.95-85.93,8.46-31.87,27.14-59.39,55.52-81.76,28.47-22.44,59.18-33.82,91.3-33.82h50.27c8.33,0,16.02,3.79,21.1,10.4,5.07,6.61,6.75,15.02,4.6,23.07l-8.86,33.11c-3.11,11.61-13.67,19.73-25.7,19.73h-57.63c-9.64,0-18.71,3.46-27.73,10.57-9.11,7.19-14.81,15.48-17.44,25.35,0,.03-.02.06-.03.09-3.15,11.48-.03,17.56,2.59,21.13,2.54,3.47,7.2,8.08,18.2,8.08h50.27c8.33,0,16.02,3.79,21.1,10.4,5.07,6.61,6.75,15.02,4.6,23.07l-.75,2.81,111.24-177.99c3.85-6.15,10.47-9.83,17.73-9.83h48.77c10.9,0,19.85,8.19,20.82,19.05l15.63,175.03,46.38-173.17c3.3-12.31,14.5-20.91,27.25-20.91h94.28c31.53,0,54.44,9.01,68.09,26.79,6.46,8.41,10.73,18.7,12.73,30.68l9.83-36.72c3.27-12.22,14.39-20.75,27.05-20.75h94.44c28.9,0,49.58,7.84,61.45,23.32,7.4,9.65,11.11,21.94,11.1,36.73l12.03-44.91c2.39-8.91,10.5-15.14,19.73-15.14h151c6.4,0,12.3,2.91,16.2,7.99,3.9,5.08,5.18,11.53,3.53,17.71l-12.16,45.46c-1.6,6-5.8,10.78-11.18,13.26,3.51,4.97,4.62,11.13,3.04,17.04l-12.16,45.46c-1.6,6-5.8,10.78-11.18,13.26,3.51,4.97,4.62,11.13,3.03,17.04l-12.16,45.46c-2.39,8.92-10.5,15.14-19.73,15.14h-151ZM1010.35,345.29c-8.58,15.88-19.88,28.33-33.79,37.19-.98.62-1.35,1.84-.88,2.89l14.96,33.46,19.7-73.55ZM692.82,307.83c-1.14,0-2.14.77-2.43,1.86l-16.15,60.2c-.27.99.09,1.73.43,2.18.34.45.97.98,2,.98h25.43c5.06,0,20.47,0,30.18-35.96,5.45-20.46,2.01-26.34,1.26-27.31-1.24-1.62-4.52-1.96-7.05-1.96h-33.68ZM485.34,357.9l-.38-5.88-3.53,5.88h3.91ZM904.79,307.83c-1.04,0-1.96.7-2.23,1.71-.25.91.08,1.59.4,2,.32.41.89.9,1.83.9h25.67c3.62,0,5.28-.73,6.54-4.62h-32.21Z" />
      <path class="cls-1" d="M1020.52,491.21c-6.4,0-12.31-2.91-16.2-7.99-.82-1.07-1.52-2.19-2.11-3.37-5.27,7.14-13.56,11.36-22.52,11.36h-35.02c-11,0-21.02-6.48-25.53-16.51l-19.23-42.74c-.37-.83-1.2-1.36-2.1-1.36h-3.27c-1.04,0-1.96.7-2.23,1.71l-10.2,38.14c-3.27,12.23-14.39,20.76-27.05,20.76h-29.23c-8.77,0-16.87-3.99-22.21-10.95-5.34-6.96-7.1-15.81-4.83-24.29l4.32-16.15c-5.83,8.19-12.25,15.41-19.26,21.63-22.23,19.75-50.44,29.76-83.84,29.76h-86.05c-8.84,0-17-4.02-22.38-11.03-.7-.92-1.34-1.86-1.92-2.84-.93,2.59-2.36,5.01-4.26,7.08-3.95,4.32-9.57,6.8-15.42,6.8h-44.21c-9.48,0-17.59-6.37-20.1-15.15h-62.05l-3,5c-3.76,6.26-10.62,10.15-17.93,10.15h-41.51c-7.6,0-14.6-4.13-18.28-10.77-.09-.16-.17-.31-.25-.47-4.88,6.89-12.91,11.24-21.71,11.24h-57.63c-33.48,0-59.41-12.22-77.04-36.32-17.5-23.91-21.85-52.82-12.95-85.93,8.46-31.87,27.14-59.39,55.52-81.76,28.47-22.44,59.18-33.82,91.3-33.82h50.27c8.33,0,16.02,3.79,21.1,10.4,5.07,6.61,6.75,15.02,4.6,23.07l-8.86,33.11c-3.11,11.61-13.67,19.73-25.7,19.73h-57.63c-9.64,0-18.71,3.46-27.73,10.57-9.11,7.19-14.81,15.48-17.44,25.35,0,.03-.02.06-.03.09-3.15,11.48-.03,17.56,2.59,21.13,2.54,3.47,7.2,8.08,18.2,8.08h50.27c8.33,0,16.02,3.79,21.1,10.4,5.07,6.61,6.75,15.02,4.6,23.07l-.75,2.81,111.24-177.99c3.85-6.15,10.47-9.83,17.73-9.83h48.77c10.9,0,19.85,8.19,20.82,19.05l15.63,175.03,46.38-173.17c3.3-12.31,14.5-20.91,27.25-20.91h94.28c31.53,0,54.44,9.01,68.09,26.79,6.46,8.41,10.73,18.7,12.73,30.68l9.83-36.72c3.27-12.22,14.39-20.75,27.05-20.75h94.44c28.9,0,49.58,7.84,61.45,23.32,7.4,9.65,11.11,21.94,11.1,36.73l12.03-44.91c2.39-8.91,10.5-15.14,19.73-15.14h151c6.4,0,12.3,2.91,16.2,7.99,3.9,5.08,5.18,11.53,3.53,17.71l-12.16,45.46c-1.6,6-5.8,10.78-11.18,13.26,3.51,4.97,4.62,11.13,3.04,17.04l-12.16,45.46c-1.6,6-5.8,10.78-11.18,13.26,3.51,4.97,4.62,11.13,3.03,17.04l-12.16,45.46c-2.39,8.92-10.5,15.14-19.73,15.14h-151ZM1024.46,377.13c-8.58,15.88-19.88,28.33-33.79,37.19-.98.62-1.35,1.84-.88,2.89l14.96,33.46,19.7-73.55ZM706.94,339.68c-1.14,0-2.14.77-2.43,1.86l-16.15,60.2c-.27.99.09,1.73.43,2.18.34.45.97.98,2,.98h25.43c5.06,0,20.47,0,30.18-35.96,5.45-20.46,2.01-26.34,1.26-27.31-1.24-1.62-4.52-1.96-7.05-1.96h-33.68ZM499.45,389.75l-.38-5.88-3.53,5.88h3.91ZM918.9,339.68c-1.04,0-1.96.7-2.23,1.71-.25.91.08,1.59.4,2,.32.41.89.9,1.83.9h25.67c3.62,0,5.28-.73,6.54-4.62h-32.21Z" />
      <path class="cls-2" d="M326,234.37h50.27c9.04,0,15.62,8.57,13.29,17.31l-8.86,33.11c-1.61,6.02-7.06,10.2-13.29,10.2h-57.63c-12.53,0-24.42,4.45-35.69,13.33-11.27,8.89-18.56,19.6-21.9,32.13-3.44,12.53-1.89,23.24,4.62,32.12,6.52,8.89,16.04,13.33,28.56,13.33h50.27c9.04,0,15.62,8.57,13.29,17.31l-8.86,33.11c-1.61,6.02-7.06,10.2-13.29,10.2h-57.63c-29.3,0-51.52-10.35-66.67-31.06-15.15-20.71-18.79-45.71-10.91-75.01,7.78-29.3,24.8-54.3,51.07-75.01,26.26-20.71,54.04-31.06,83.34-31.06ZM419.87,435.28l-4.4,7.33c-1.46,2.43-4.08,3.91-6.91,3.91h-41.51c-6.33,0-10.19-6.96-6.83-12.33l122.52-196.03c1.47-2.36,4.06-3.79,6.83-3.79h48.77c4.17,0,7.66,3.19,8.03,7.34l17.5,196.03c.42,4.72-3.29,8.78-8.03,8.78h-44.21c-4.26,0-7.79-3.32-8.04-7.58h0c-.26-4.26-3.78-7.58-8.04-7.58h-68.77c-2.83,0-5.45,1.49-6.91,3.91ZM498.49,362.17l-1.71-26.28c-.51-7.89-10.89-10.4-14.95-3.62l-15.77,26.28c-3.22,5.37.65,12.21,6.91,12.21h17.47c4.66,0,8.34-3.94,8.04-8.58ZM584.99,427.18l48.6-181.42c1.8-6.72,7.89-11.39,14.84-11.39h94.28c60.61,0,81.47,35.36,62.58,106.07-18.99,70.72-58.79,106.07-119.41,106.07h-86.05c-10.1,0-17.45-9.58-14.84-19.34ZM677.98,306.36l-16.15,60.2c-2.62,9.76,4.73,19.34,14.84,19.34h25.43c20.2,0,34.4-15.15,42.58-45.46,8.08-30.31,2.02-45.46-18.18-45.46h-33.68c-6.95,0-13.04,4.67-14.84,11.38ZM883.69,385.9h-3.27c-6.86,0-12.87,4.61-14.64,11.24l-10.2,38.14c-1.77,6.63-7.78,11.24-14.64,11.24h-29.23c-9.96,0-17.21-9.45-14.64-19.07l48.71-181.84c1.77-6.63,7.78-11.23,14.64-11.23h94.44c50.51,0,69,25.26,55.46,75.77-7.67,28.62-21.22,49.12-40.66,61.51-6.34,4.04-8.77,12.1-5.7,18.97l15.46,34.56c4.48,10.02-2.85,21.34-13.83,21.34h-35.02c-5.96,0-11.37-3.5-13.82-8.93l-19.23-42.74c-2.45-5.44-7.86-8.93-13.82-8.93ZM890.16,306.19h0c-2.6,9.63,4.65,19.1,14.63,19.1h25.67c10.1,0,16.52-5.05,19.24-15.15,2.73-10.1-.96-15.15-11.06-15.15h-33.86c-6.85,0-12.84,4.59-14.63,11.2ZM1217.49,243.91l-12.16,45.46c-.89,3.31-3.89,5.62-7.32,5.62h-94.45c-3.42,0-6.42,2.3-7.31,5.6h0c-1.3,4.82,2.33,9.55,7.31,9.55h86.31c4.98,0,8.61,4.72,7.32,9.53l-12.16,45.46c-.89,3.31-3.89,5.62-7.32,5.62h-94.45c-3.42,0-6.42,2.3-7.31,5.6h0c-1.3,4.82,2.33,9.55,7.31,9.55h86.31c4.98,0,8.61,4.72,7.32,9.53l-12.16,45.46c-.89,3.31-3.89,5.62-7.32,5.62h-151c-4.98,0-8.61-4.73-7.32-9.54l52.77-196.99c.89-3.31,3.89-5.62,7.32-5.62h151c4.98,0,8.61,4.72,7.32,9.53Z" />
      <path class="cls-1" d="M1267.39,575.98c-7.93,0-14.72-3.31-19.14-9.32-.62-.85-1.18-1.72-1.67-2.63-12.33,7.93-25.47,11.95-39.17,11.95s-25.81-4.3-34.79-12.54c-1.62,2.06-3.53,3.96-5.71,5.69-5.75,4.54-12.11,6.85-18.92,6.85-7.7,0-14.33-3.12-18.75-8.81-9.07,5.85-20.35,8.81-33.56,8.81h-37.19c-8.87,0-16.47-5.41-19.38-13.79-2.91-8.38-.29-17.34,6.67-22.83l8.54-6.74c-1.82-1.46-3.43-3.12-4.84-4.96-6.58-8.58-7.98-20.16-4.15-34.4,3.53-13.24,10.21-23.48,19.84-30.42,9.39-6.77,21.42-10.2,35.74-10.2h33.7c8.87,0,16.47,5.41,19.38,13.79,2.91,8.38.29,17.34-6.67,22.83l-6.78,5.35c2.6,1.78,4.85,3.9,6.73,6.34,4.48,5.83,6.55,13.04,6.19,21.51.66-.04,1.32-.07,1.99-.07.59,0,1.18.02,1.76.06.34-3.71,1.03-7.54,2.09-11.47,4.28-16.13,13.69-30.03,27.96-41.27,14.35-11.32,29.94-17.06,46.31-17.06,17.5,0,31.69,6.76,41.05,19.56,9.35,12.77,11.75,28.05,7.14,45.41-.48,1.79-1.03,3.56-1.64,5.3,5.65,1.15,10.47,4.17,13.87,8.8,3.03,4.12,6.1,11.07,3.53,20.77-.01.05-.03.1-.04.14-1.81,6.52-5.57,12.08-11.18,16.51-5.75,4.55-12.12,6.85-18.92,6.85ZM1226.1,506.23c-1.8,0-4.63.35-8.47,3.38-3.01,2.38-4.8,4.92-5.62,8.01,0,.03-.02.06-.03.09-.73,2.66-.17,3.43.1,3.79.29.4.65.89,2.79.89,1.8,0,4.63-.35,8.47-3.38,3.03-2.39,4.84-4.95,5.7-8.05.7-2.67.12-3.46-.16-3.84-.29-.39-.65-.89-2.79-.89Z" />
      <path class="cls-1" d="M1283.94,592.17c-7.93,0-14.72-3.31-19.14-9.32-.62-.85-1.18-1.72-1.67-2.63-12.33,7.93-25.47,11.95-39.17,11.95s-25.81-4.3-34.79-12.54c-1.62,2.06-3.53,3.96-5.71,5.69-5.75,4.54-12.11,6.85-18.92,6.85-7.7,0-14.33-3.12-18.75-8.81-9.07,5.85-20.35,8.81-33.56,8.81h-37.19c-8.87,0-16.47-5.41-19.38-13.79-2.91-8.38-.29-17.34,6.67-22.83l8.54-6.74c-1.82-1.46-3.43-3.12-4.84-4.96-6.58-8.58-7.98-20.16-4.15-34.4,3.53-13.24,10.21-23.48,19.84-30.42,9.39-6.77,21.42-10.2,35.74-10.2h33.7c8.87,0,16.47,5.41,19.38,13.79,2.91,8.38.29,17.34-6.67,22.83l-6.78,5.35c2.6,1.78,4.85,3.9,6.73,6.34,4.48,5.83,6.55,13.04,6.19,21.51.66-.04,1.32-.07,1.99-.07.59,0,1.18.02,1.76.06.34-3.71,1.03-7.54,2.09-11.47,4.28-16.13,13.69-30.03,27.96-41.27,14.35-11.32,29.94-17.06,46.31-17.06,17.5,0,31.69,6.76,41.05,19.56,9.35,12.77,11.75,28.05,7.14,45.41-.48,1.79-1.03,3.56-1.64,5.3,5.65,1.15,10.47,4.17,13.87,8.8,3.03,4.12,6.1,11.07,3.53,20.77-.01.05-.03.1-.04.14-1.81,6.52-5.57,12.08-11.18,16.51-5.75,4.55-12.12,6.85-18.92,6.85ZM1242.65,522.43c-1.8,0-4.63.35-8.47,3.38-3.01,2.38-4.8,4.92-5.62,8.01,0,.03-.02.06-.03.09-.73,2.66-.17,3.43.1,3.79.29.4.65.89,2.79.89,1.8,0,4.63-.35,8.47-3.38,3.03-2.39,4.84-4.95,5.7-8.05.7-2.67.12-3.46-.16-3.84-.29-.39-.65-.89-2.79-.89Z" />
      <path class="cls-2" d="M1085.72,528.26c-23.25,0-32.04-10.55-26.36-31.66,5.53-20.74,19.92-31.11,43.17-31.11h33.7c7.27,0,10.46,9.18,4.75,13.68l-15.93,12.57c-1.35,1.07-3.03,1.65-4.75,1.65h-25.24c-4.65,0-7.25,1.07-7.81,3.21-.7,2.51,1.28,3.77,5.93,3.77h20.92c23.25,0,32.11,10.37,26.57,31.11-5.67,21.11-20.13,31.66-43.38,31.66h-37.19c-7.27,0-10.46-9.18-4.75-13.68l15.93-12.57c1.35-1.07,3.03-1.65,4.75-1.65h28.73c4.65,0,7.32-1.26,8.02-3.77.56-2.14-1.49-3.21-6.14-3.21h-20.92ZM1149.61,563.13c-3.86,0-6.79-1.36-8.79-4.08-2-2.72-2.47-6.01-1.4-9.87,1.02-3.86,3.25-7.15,6.7-9.87,3.44-2.72,7.09-4.08,10.95-4.08s6.79,1.36,8.79,4.08c2,2.72,2.49,6.01,1.46,9.87-1.07,3.86-3.32,7.15-6.77,9.87-3.44,2.72-7.09,4.08-10.95,4.08ZM1209.03,563.13c-13.48,0-23.71-4.77-30.69-14.3-6.97-9.53-8.65-21.04-5.02-34.52,3.58-13.48,11.41-24.99,23.5-34.52,12.09-9.53,24.88-14.3,38.36-14.3s23.71,4.77,30.69,14.3c6.97,9.53,8.67,21.04,5.09,34.52-3.63,13.49-11.49,24.99-23.57,34.52-12.09,9.53-24.88,14.3-38.36,14.3ZM1232.92,529.09c5.18-4.09,8.57-9.02,10.15-14.79,1.53-5.76.8-10.69-2.2-14.79-3-4.09-7.38-6.14-13.15-6.14s-11.24,2.05-16.43,6.14c-5.18,4.09-8.54,9.02-10.08,14.79-1.58,5.77-.87,10.7,2.13,14.79,3,4.09,7.38,6.14,13.15,6.14s11.24-2.05,16.43-6.14ZM1269.01,563.13c-3.86,0-6.79-1.36-8.79-4.08-2-2.72-2.46-6.01-1.39-9.87,1.02-3.86,3.25-7.15,6.7-9.87,3.44-2.72,7.09-4.08,10.95-4.08s6.79,1.36,8.79,4.08c2,2.72,2.49,6.01,1.46,9.87-1.07,3.86-3.32,7.15-6.76,9.87-3.44,2.72-7.09,4.08-10.95,4.08Z" />
    </g>
  </g>
</svg>
