<svg xmlns="http://www.w3.org/2000/svg" style="display:none">
    <symbol id="icon-instagram" viewBox="0 0 24 24">
        <path fill="currentColor" d="M12 2.2c3.2 0 3.6 0 4.85.07 1.17.05 1.8.25 2.23.42.56.22.96.48 1.38.9.42.42.68.82.9 1.38.16.42.36 1.06.42 2.23.05 1.25.07 1.65.07 4.85s-.02 3.6-.07 4.85c-.06 1.17-.26 1.8-.42 2.23-.22.56-.48.96-.9 1.38-.42.42-.82.68-1.38.9-.43.16-1.06.36-2.23.42-1.25.05-1.65.07-4.85.07s-3.6-.02-4.85-.07c-1.17-.06-1.8-.26-2.23-.42a3.7 3.7 0 0 1-1.38-.9 3.7 3.7 0 0 1-.9-1.38c-.16-.43-.36-1.06-.42-2.23C2.2 15.6 2.2 15.2 2.2 12s.02-3.6.07-4.85c.06-1.17.26-1.8.42-2.23.22-.56.48-.96.9-1.38.42-.42.82-.68 1.38-.9.42-.16 1.06-.36 2.23-.42C8.4 2.2 8.8 2.2 12 2.2zm0 1.8c-3.15 0-3.52.01-4.76.07-1.07.05-1.65.23-2.04.38-.51.2-.88.44-1.26.82-.38.38-.62.75-.82 1.26-.15.39-.33.97-.38 2.04C2.6 8.48 2.6 8.85 2.6 12s.01 3.52.07 4.76c.05 1.07.23 1.65.38 2.04.2.51.44.88.82 1.26.38.38.75.62 1.26.82.39.15.97.33 2.04.38 1.24.06 1.61.07 4.76.07s3.52-.01 4.76-.07c1.07-.05 1.65-.23 2.04-.38.51-.2.88-.44 1.26-.82.38-.38.62-.75.82-1.26.15-.39.33-.97.38-2.04.06-1.24.07-1.61.07-4.76s-.01-3.52-.07-4.76c-.05-1.07-.23-1.65-.38-2.04a3.4 3.4 0 0 0-.82-1.26 3.4 3.4 0 0 0-1.26-.82c-.39-.15-.97-.33-2.04-.38C15.52 4.01 15.15 4 12 4zm0 3.07A4.93 4.93 0 1 1 12 17a4.93 4.93 0 0 1 0-9.86zm0 8.13a3.2 3.2 0 1 0 0-6.4 3.2 3.2 0 0 0 0 6.4zm6.27-8.32a1.15 1.15 0 1 1-2.3 0 1.15 1.15 0 0 1 2.3 0z"/>
    </symbol>
    <symbol id="icon-discord" viewBox="0 0 24 24">
        <path fill="currentColor" d="M20.32 4.37A19.8 19.8 0 0 0 15.42 3c-.21.38-.46.89-.63 1.3a18.4 18.4 0 0 0-5.58 0c-.17-.41-.42-.92-.64-1.3a19.7 19.7 0 0 0-4.9 1.37C.74 8.94-.12 13.39.31 17.77a19.9 19.9 0 0 0 6.06 3.05c.49-.67.92-1.39 1.3-2.14a12.86 12.86 0 0 1-2.04-.98c.17-.13.34-.26.5-.4a14.18 14.18 0 0 0 12.12 0c.16.14.33.27.5.4-.65.39-1.34.71-2.05.98.37.75.81 1.47 1.3 2.14a19.83 19.83 0 0 0 6.06-3.05c.5-5.09-.85-9.5-3.56-13.4zM8.52 15.1c-1.18 0-2.16-1.1-2.16-2.44 0-1.34.95-2.45 2.16-2.45 1.21 0 2.18 1.11 2.16 2.45 0 1.34-.95 2.44-2.16 2.44zm6.96 0c-1.18 0-2.16-1.1-2.16-2.44 0-1.34.95-2.45 2.16-2.45 1.21 0 2.18 1.11 2.16 2.45 0 1.34-.95 2.44-2.16 2.44z"/>
    </symbol>
    <symbol id="icon-x" viewBox="0 0 24 24">
        <path fill="currentColor" d="M18.244 2.25h3.308l-7.227 8.26 8.502 11.24H16.17l-5.214-6.817L4.99 21.75H1.68l7.73-8.835L1.254 2.25H8.08l4.713 6.231zm-1.161 17.52h1.833L7.084 4.126H5.117z"/>
    </symbol>
    <symbol id="icon-linktree" viewBox="0 0 24 24">
        <path fill="currentColor" d="M13.736 5.853 17.498 2l2.55 2.6-3.953 3.768h5.32v3.642h-5.358L20.05 15.85l-2.55 2.466L12 12.756 6.5 18.316l-2.55-2.466 3.992-3.84H2.585V8.368h5.32L3.953 4.6 6.502 2l3.762 3.853V.554h3.472zM10.265 14.13h3.472v9.317h-3.472z"/>
    </symbol>
</svg>
