<svg xmlns="http://www.w3.org/2000/svg" style="display:none">
    <symbol id="icon-instagram" viewBox="0 0 24 24">
        <path fill="currentColor" d="M12 2.2c3.2 0 3.6 0 4.85.07 1.17.05 1.8.25 2.23.42.56.22.96.48 1.38.9.42.42.68.82.9 1.38.16.42.36 1.06.42 2.23.05 1.25.07 1.65.07 4.85s-.02 3.6-.07 4.85c-.06 1.17-.26 1.8-.42 2.23-.22.56-.48.96-.9 1.38-.42.42-.82.68-1.38.9-.43.16-1.06.36-2.23.42-1.25.05-1.65.07-4.85.07s-3.6-.02-4.85-.07c-1.17-.06-1.8-.26-2.23-.42a3.7 3.7 0 0 1-1.38-.9 3.7 3.7 0 0 1-.9-1.38c-.16-.43-.36-1.06-.42-2.23C2.2 15.6 2.2 15.2 2.2 12s.02-3.6.07-4.85c.06-1.17.26-1.8.42-2.23.22-.56.48-.96.9-1.38.42-.42.82-.68 1.38-.9.42-.16 1.06-.36 2.23-.42C8.4 2.2 8.8 2.2 12 2.2zm0 1.8c-3.15 0-3.52.01-4.76.07-1.07.05-1.65.23-2.04.38-.51.2-.88.44-1.26.82-.38.38-.62.75-.82 1.26-.15.39-.33.97-.38 2.04C2.6 8.48 2.6 8.85 2.6 12s.01 3.52.07 4.76c.05 1.07.23 1.65.38 2.04.2.51.44.88.82 1.26.38.38.75.62 1.26.82.39.15.97.33 2.04.38 1.24.06 1.61.07 4.76.07s3.52-.01 4.76-.07c1.07-.05 1.65-.23 2.04-.38.51-.2.88-.44 1.26-.82.38-.38.62-.75.82-1.26.15-.39.33-.97.38-2.04.06-1.24.07-1.61.07-4.76s-.01-3.52-.07-4.76c-.05-1.07-.23-1.65-.38-2.04a3.4 3.4 0 0 0-.82-1.26 3.4 3.4 0 0 0-1.26-.82c-.39-.15-.97-.33-2.04-.38C15.52 4.01 15.15 4 12 4zm0 3.07A4.93 4.93 0 1 1 12 17a4.93 4.93 0 0 1 0-9.86zm0 8.13a3.2 3.2 0 1 0 0-6.4 3.2 3.2 0 0 0 0 6.4zm6.27-8.32a1.15 1.15 0 1 1-2.3 0 1.15 1.15 0 0 1 2.3 0z"/>
    </symbol>
    <symbol id="icon-discord" viewBox="0 0 24 24">
        <path fill="currentColor" d="M20.32 4.37A19.8 19.8 0 0 0 15.42 3c-.21.38-.46.89-.63 1.3a18.4 18.4 0 0 0-5.58 0c-.17-.41-.42-.92-.64-1.3a19.7 19.7 0 0 0-4.9 1.37C.74 8.94-.12 13.39.31 17.77a19.9 19.9 0 0 0 6.06 3.05c.49-.67.92-1.39 1.3-2.14a12.86 12.86 0 0 1-2.04-.98c.17-.13.34-.26.5-.4a14.18 14.18 0 0 0 12.12 0c.16.14.33.27.5.4-.65.39-1.34.71-2.05.98.37.75.81 1.47 1.3 2.14a19.83 19.83 0 0 0 6.06-3.05c.5-5.09-.85-9.5-3.56-13.4zM8.52 15.1c-1.18 0-2.16-1.1-2.16-2.44 0-1.34.95-2.45 2.16-2.45 1.21 0 2.18 1.11 2.16 2.45 0 1.34-.95 2.44-2.16 2.44zm6.96 0c-1.18 0-2.16-1.1-2.16-2.44 0-1.34.95-2.45 2.16-2.45 1.21 0 2.18 1.11 2.16 2.45 0 1.34-.95 2.44-2.16 2.44z"/>
    </symbol>
    <symbol id="icon-x" viewBox="0 0 24 24">
        <path fill="currentColor" d="M18.244 2.25h3.308l-7.227 8.26 8.502 11.24H16.17l-5.214-6.817L4.99 21.75H1.68l7.73-8.835L1.254 2.25H8.08l4.713 6.231zm-1.161 17.52h1.833L7.084 4.126H5.117z"/>
    </symbol>
    <symbol id="icon-linktree" viewBox="0 0 24 24">
        <path fill="currentColor" d="M13.736 5.853 17.498 2l2.55 2.6-3.953 3.768h5.32v3.642h-5.358L20.05 15.85l-2.55 2.466L12 12.756 6.5 18.316l-2.55-2.466 3.992-3.84H2.585V8.368h5.32L3.953 4.6 6.502 2l3.762 3.853V.554h3.472zM10.265 14.13h3.472v9.317h-3.472z"/>
    </symbol>
    <symbol id="icon-facebook" viewBox="0 0 24 24">
        <path fill="currentColor" d="M9.101 23.691v-7.98H6.627v-3.667h2.474v-1.58c0-4.085 1.848-5.978 5.858-5.978.401 0 .955.042 1.468.103a8.68 8.68 0 0 1 1.141.195v3.325a8.623 8.623 0 0 0-.653-.036 26.805 26.805 0 0 0-.733-.009c-.707 0-1.259.096-1.675.309a1.686 1.686 0 0 0-.679.622c-.258.42-.374.995-.374 1.752v1.297h3.919l-.386 2.103-.287 1.564h-3.246v8.245C19.396 23.238 24 18.179 24 12.044c0-6.627-5.373-12-12-12s-12 5.373-12 12c0 5.628 3.874 10.35 9.101 11.647Z"/>
    </symbol>
    <symbol id="icon-youtube" viewBox="0 0 24 24">
        <path fill="currentColor" d="M23.498 6.186a3.016 3.016 0 0 0-2.122-2.136C19.505 3.545 12 3.545 12 3.545s-7.505 0-9.377.505A3.017 3.017 0 0 0 .502 6.186C0 8.07 0 12 0 12s0 3.93.502 5.814a3.016 3.016 0 0 0 2.122 2.136c1.871.505 9.376.505 9.376.505s7.505 0 9.377-.505a3.015 3.015 0 0 0 2.122-2.136C24 15.93 24 12 24 12s0-3.93-.502-5.814zM9.545 15.568V8.432L15.818 12l-6.273 3.568z"/>
    </symbol>
    <symbol id="icon-bluesky" viewBox="0 0 90 90">
        <path fill="currentColor" d="M 19.509 10.712 C 29.827 18.459 40.925 34.165 45 42.594 c 4.075 -8.428 15.173 -24.135 25.492 -31.882 C 77.937 5.123 90 0.798 90 14.56 c 0 2.748 -1.576 23.088 -2.5 26.39 c -3.213 11.48 -14.919 14.408 -25.332 12.636 C 80.37 56.684 85 66.945 75 77.206 c -18.991 19.488 -27.296 -4.89 -29.425 -11.136 c -0.39 -1.145 -0.573 -1.681 -0.575 -1.225 c -0.003 -0.456 -0.185 0.08 -0.575 1.225 c -2.128 6.246 -10.433 30.625 -29.425 11.136 C 5 66.945 9.63 56.683 27.832 53.586 C 17.418 55.358 5.712 52.43 2.5 40.95 C 1.576 37.648 0 17.308 0 14.56 C 0 0.798 12.063 5.123 19.509 10.712 Z"/>
    </symbol>
    <symbol id="icon-linkedin" viewBox="0 0 90 90">
        <path fill="currentColor" d="M 83.349 0 H 6.651 C 2.978 0 0 2.887 0 6.447 v 77.106 C 0 87.114 2.978 90 6.651 90 h 76.698 C 87.022 90 90 87.114 90 83.553 V 6.447 C 90 2.887 87.022 0 83.349 0 z M 27.282 75.339 H 13.688 v -40.64 h 13.594 V 75.339 z M 20.485 29.151 h -0.088 c -4.562 0 -7.512 -3.121 -7.512 -7.021 c 0 -3.988 3.04 -7.022 7.69 -7.022 c 4.651 0 7.513 3.034 7.601 7.022 C 28.176 26.03 25.225 29.151 20.485 29.151 z M 76.299 75.339 H 62.707 V 53.598 c 0 -5.463 -1.968 -9.19 -6.887 -9.19 c -3.756 0 -5.992 2.513 -6.975 4.94 c -0.359 0.868 -0.447 2.081 -0.447 3.296 v 22.695 H 34.804 c 0 0 0.178 -36.826 0 -40.64 h 13.594 v 5.756 c 1.806 -2.769 5.036 -6.709 12.251 -6.709 c 8.944 0 15.65 5.808 15.65 18.291 V 75.339 z"/>
    </symbol>
    <symbol id="icon-link" viewBox="0 0 24 24">
        <path fill="currentColor" d="M3.9 12c0-1.71 1.39-3.1 3.1-3.1h4V7H7c-2.76 0-5 2.24-5 5s2.24 5 5 5h4v-1.9H7c-1.71 0-3.1-1.39-3.1-3.1zM8 13h8v-2H8v2zm9-6h-4v1.9h4c1.71 0 3.1 1.39 3.1 3.1s-1.39 3.1-3.1 3.1h-4V17h4c2.76 0 5-2.24 5-5s-2.24-5-5-5z"/>
    </symbol>
    <symbol id="icon-itchdotio" viewBox="0 0 24 24">
        <path fill="currentColor" d="M3.13 1.338C2.08 1.96.02 4.328 0 4.95v1.03c0 1.303 1.22 2.45 2.325 2.45 1.33 0 2.436-1.102 2.436-2.41 0 1.308 1.07 2.41 2.4 2.41 1.328 0 2.362-1.102 2.362-2.41 0 1.308 1.137 2.41 2.466 2.41h.024c1.33 0 2.466-1.102 2.466-2.41 0 1.308 1.034 2.41 2.363 2.41 1.33 0 2.4-1.102 2.4-2.41 0 1.308 1.106 2.41 2.435 2.41C22.78 8.43 24 7.282 24 5.98V4.95c-.02-.62-2.082-2.99-3.13-3.612-3.253-.114-5.508-.134-8.87-.133-3.362 0-7.945.053-8.87.133zm6.376 6.477a2.74 2.74 0 0 1-.468.602c-.5.49-1.19.795-1.947.795a2.786 2.786 0 0 1-1.95-.795c-.182-.178-.32-.37-.446-.59-.127.222-.303.412-.486.59a2.788 2.788 0 0 1-1.95.795c-.092 0-.187-.025-.264-.052-.107 1.113-.152 2.176-.168 2.95v.005l-.006 1.167c.02 2.334-.23 7.564 1.03 8.85 1.952.454 5.545.662 9.15.663 3.605 0 7.198-.21 9.15-.664 1.26-1.284 1.01-6.514 1.03-8.848l-.006-1.167v-.004c-.016-.775-.06-1.838-.168-2.95-.077.026-.172.052-.263.052a2.788 2.788 0 0 1-1.95-.795c-.184-.178-.36-.368-.486-.59-.127.22-.265.412-.447.59a2.786 2.786 0 0 1-1.95.794c-.76 0-1.446-.303-1.948-.793a2.74 2.74 0 0 1-.468-.602 2.738 2.738 0 0 1-.463.602 2.787 2.787 0 0 1-1.95.794h-.16a2.787 2.787 0 0 1-1.95-.793 2.738 2.738 0 0 1-.464-.602zm-2.004 2.59v.002c.795.002 1.5 0 2.373.953.687-.072 1.406-.108 2.125-.107.72 0 1.438.035 2.125.107.873-.953 1.578-.95 2.372-.953.376 0 1.876 0 2.92 2.934l1.123 4.028c.832 2.995-.266 3.068-1.636 3.07-2.03-.075-3.156-1.55-3.156-3.025-1.124.184-2.436.276-3.748.277-1.312 0-2.624-.093-3.748-.277 0 1.475-1.125 2.95-3.156 3.026-1.37-.004-2.468-.077-1.636-3.072l1.122-4.027c1.045-2.934 2.545-2.934 2.92-2.934zM12 12.714c-.002.002-2.14 1.964-2.523 2.662l1.4-.056v1.22c0 .056.56.033 1.123.007.562.026 1.124.05 1.124-.008v-1.22l1.4.055C14.138 14.677 12 12.713 12 12.713z"/>
    </symbol>
</svg>
